<svg xmlns="http://www.w3.org/2000/svg" xmlns:xlink="http://www.w3.org/1999/xlink" version="1.1" x="0px" y="0px" viewBox="0 0 100 125" enable-background="new 0 0 100 100" xml:space="preserve"><g><defs><rect id="b" x="7.5" y="4.5" width="85.081" height="90"/></defs><clipPath id="a"><use xlink:href="#b" overflow="visible"/></clipPath><path clip-path="url(#a)" fill="#000000" d="M92.581,94.5l-24.36-9v-72l24.36-9V94.5z M60.298,68.819h-2.064V50.536h2.531   c1.411,0.001,2.72,1.192,2.716,2.761c0.004,0.038,0,12.697,0,12.697c0.003,1.773-1.338,2.791-2.716,2.794h-0.467V68.819z    M18.739,22.366c-0.542-3.44,1.806-6.662,5.247-7.207c3.432-0.542,6.657,1.807,7.199,5.243c0.542,3.436-1.803,6.662-5.239,7.204   C22.506,28.146,19.285,25.799,18.739,22.366 M35.333,38.186l3.839,12.381h0.413h2.019v7.842v10.41h1.375v-5.977V50.567h3.144   v-2.624c0-0.151,0.054-0.277,0.095-0.409l-5.983-7.349L35.333,38.186z M47.465,50.567h4.891v-2.7h-1.089   c-0.143,0.188-0.26,0.392-0.451,0.549c-0.98,0.799-2.309,0.871-3.351,0.294V50.567z M7.513,53.833   c0.074-0.783,0.452-1.538,1.11-2.07l8.51-6.83l4.423-11.889c0.101-0.277,0.249-0.516,0.416-0.737   c0.813-1.35,2.087-2.427,3.709-2.921c1.348-0.41,2.723-0.363,3.969,0.037c0.175,0.042,0.349,0.087,0.518,0.156L43.22,34.9   c0.468,0.187,0.879,0.494,1.199,0.885l6.833,8.393c0.529,0.651,0.738,1.455,0.654,2.227c1.007,0.005,1.83,0.602,1.823,1.538v2.624   h3.128v18.252h-11.26l8.2,8.298c1.635,1.656,1.619,4.323-0.039,5.958c-1.658,1.637-4.326,1.621-5.96-0.036l-9.873-10.003   c-0.308-0.312-0.558-0.671-0.755-1.059c-0.1-0.178-0.193-0.36-0.269-0.556l-3.111-9.891l-8.372,8.423v14.513   c0,2.327-1.886,4.213-4.214,4.213c-2.33,0-4.217-1.886-4.217-4.213v-16.06c0-0.088,0.005-0.173,0.012-0.256l-0.017-0.004   c0.074-0.79,0.368-1.547,0.855-2.177l9.202-9.476l-3.509-11.479L22.49,47.81c-0.191,0.512-0.515,0.96-0.938,1.299l-9.156,7.35   c-1.296,1.044-3.192,0.836-4.236-0.459C7.651,55.365,7.443,54.584,7.513,53.833"/></g></svg>